<?xml version="1.0" standalone="no"?>
<!DOCTYPE svg PUBLIC "-//W3C//DTD SVG 1.0//EN" "http://www.w3.org/TR/2001/REC-SVG-20010904/DTD/svg10.dtd">
<svg xmlns="http://www.w3.org/2000/svg" xmlns:xlink="http://www.w3.org/1999/xlink" id="body_1" width="51" height="38">

<defs>
    <radialGradient cx="55.648304%" cy="74.60232%" r="127.080574%" gradientUnits="objectBoundingBox" id="1">
        <stop offset="0%" stop-color="#FFFFFF" stop-opacity="1"/>
        <stop offset="100%" stop-color="#FF0000" stop-opacity="1"/>
    </radialGradient>
<mask id="266">
<path  transform="matrix(0.99167 0.0041626 -0.0041976 0.99999 0.11387 -0.052012)"   d="M22.4625 2.3351002C 22.4625 4.976306 21.412167 7.5120363 19.544552 9.379651C 17.676937 11.247266 15.141206 12.2976 12.5 12.2976C 9.858794 12.2976 7.323064 11.247266 5.455449 9.379651C 3.5878346 7.5120363 2.5375004 4.976306 2.5375004 2.3351002C 2.5375004 -0.30610564 3.5878346 -2.8418362 5.455449 -4.7094507C 7.323064 -6.5770655 9.858794 -7.6273994 12.5 -7.6273994C 15.141206 -7.6273994 17.676937 -6.5770655 19.544552 -4.7094507C 21.412167 -2.8418362 22.4625 -0.30610564 22.4625 2.3351002z" fill="white"/>
</mask>
</defs>

<g transform="matrix(1.1604826 0 0 1.1604826 13.301588 -0)">
	<g transform="matrix(1 0 0 1 4.653 -422.37)">
		<g transform="matrix(-0.84298 0.0081599 0.0081599 0.84298 8.0248 -431.98)">
            <path d="M12.5 1013.9C 5.8831 1013.9 0.52000046 1019.2547 0.52000046 1025.862C 0.52000046 1030.5978 3.2933004 1034.6826 7.2910004 1036.6211L7.2910004 1036.6211L12.4995 1050.8591C 14.4362 1046.1301 16.1864 1041.3351 17.903301 1036.5242C 21.794102 1034.5477 24.479 1030.5199 24.479 1025.8622C 24.479 1019.2547 19.1164 1013.9002 12.499001 1013.9002L12.499001 1013.9002L12.5 1013.9z" stroke="#000000" stroke-width="1" fill="#FF3737" fill-rule="nonzero" fill-opacity="0.64705884" />
            <path transform="matrix(0.23201 1.0795 -1.0795 0.23201 22.014 1009.7)"  d="M21.964 11.5C 21.964 16.727001 17.7267 20.9643 12.499701 20.9643C 7.2727013 20.9643 3.0354004 16.727001 3.0354004 11.5C 3.0354004 6.272999 7.2727003 2.0356998 12.499701 2.0356998C 17.7267 2.0356998 21.964 6.273 21.964 11.5z" stroke="none" mask="url(#266)" fill="url(#1)"  />
		</g>
	</g>
</g>
</svg>